<?xml version="1.0" encoding="UTF-8" standalone="no"?>
<!-- Created with Inkscape (http://www.inkscape.org/) -->

<svg
   xmlns:dc="http://purl.org/dc/elements/1.1/"
   xmlns:cc="http://creativecommons.org/ns#"
   xmlns:rdf="http://www.w3.org/1999/02/22-rdf-syntax-ns#"
   xmlns:svg="http://www.w3.org/2000/svg"
   xmlns="http://www.w3.org/2000/svg"
   xmlns:sodipodi="http://sodipodi.sourceforge.net/DTD/sodipodi-0.dtd"
   xmlns:inkscape="http://www.inkscape.org/namespaces/inkscape"
   width="600mm"
   height="300mm"
   viewBox="0 0 600 300"
   version="1.1"
   id="svg8"
   inkscape:version="0.92.1 r15371"
   sodipodi:docname="hetgeen onder stuur laatste.svg">
  <defs
     id="defs2" />
  <sodipodi:namedview
     id="base"
     pagecolor="#ffffff"
     bordercolor="#666666"
     borderopacity="1.0"
     inkscape:pageopacity="0.0"
     inkscape:pageshadow="2"
     inkscape:zoom="1.8185694"
     inkscape:cx="1057.3236"
     inkscape:cy="414.60857"
     inkscape:document-units="mm"
     inkscape:current-layer="layer1"
     showgrid="false"
     inkscape:window-width="1536"
     inkscape:window-height="801"
     inkscape:window-x="-8"
     inkscape:window-y="-8"
     inkscape:window-maximized="1"
     inkscape:measure-start="186.96,335.978"
     inkscape:measure-end="232.051,348.626" />
  <metadata
     id="metadata5">
    <rdf:RDF>
      <cc:Work
         rdf:about="">
        <dc:format>image/svg+xml</dc:format>
        <dc:type
           rdf:resource="http://purl.org/dc/dcmitype/StillImage" />
        <dc:title></dc:title>
      </cc:Work>
    </rdf:RDF>
  </metadata>
  <g
     inkscape:label="Laag 1"
     inkscape:groupmode="layer"
     id="layer1"
     transform="translate(0,3)">
    <path
       d="M 1.3666836,116.42565 H 31.529183 v 55.07503 H 16.447969 v 2.69999 h 15.081214 v 63.04389 H 16.447969 v 2.70002 h 15.081214 v 55.07499 H 1.3666836 Z"
       style="fill:none;stroke:#0000ff;stroke-width:0.0762;stroke-linecap:butt;stroke-linejoin:miter;stroke-miterlimit:22.92558479;stroke-dasharray:none;stroke-opacity:1"
       id="path4495"
       inkscape:connector-curvature="0" />
    <path
       d="m 37.548277,115.36746 h 30.1625 v 55.07499 H 52.629562 v 2.70002 h 15.081215 v 63.0439 H 52.629562 v 2.69998 h 15.081215 v 55.075 h -30.1625 z"
       style="fill:none;stroke:#0000ff;stroke-width:0.0762;stroke-linecap:butt;stroke-linejoin:miter;stroke-miterlimit:22.92558479;stroke-dasharray:none;stroke-opacity:1"
       id="path4497"
       inkscape:connector-curvature="0" />
    <path
       inkscape:connector-curvature="0"
       id="path4501"
       style="fill:none;stroke:#0000ff;stroke-width:0.0762;stroke-linecap:butt;stroke-linejoin:miter;stroke-miterlimit:4;stroke-dasharray:none;stroke-opacity:1"
       d="m 291.26081,277.3929 h 249.188" />
    <path
       inkscape:connector-curvature="0"
       id="path4505"
       style="fill:none;stroke:#0000ff;stroke-width:0.0762;stroke-linecap:butt;stroke-linejoin:miter;stroke-miterlimit:4;stroke-dasharray:none;stroke-opacity:1"
       d="M 291.13741,120.39273 H 540.2466" />
    <path
       inkscape:connector-curvature="0"
       id="path4509"
       style="fill:none;stroke:#ff0000;stroke-width:0.0762;stroke-linecap:square;stroke-linejoin:miter;stroke-miterlimit:4;stroke-dasharray:none;stroke-opacity:1"
       d="m 319.60901,196.39252 -0.0772,-38.00002" />
    <path
       inkscape:connector-curvature="0"
       id="path4513"
       style="fill:none;stroke:#0000ff;stroke-width:0.0762;stroke-linecap:butt;stroke-linejoin:miter;stroke-miterlimit:4;stroke-dasharray:none;stroke-opacity:1"
       d="m 291.13741,120.39273 28.39441,37.99977" />
    <path
       inkscape:connector-curvature="0"
       id="path4517"
       style="fill:none;stroke:#0000ff;stroke-width:0.0762;stroke-linecap:butt;stroke-linejoin:miter;stroke-miterlimit:4;stroke-dasharray:none;stroke-opacity:1"
       d="m 319.60901,196.39252 -28.4251,37.99999" />
    <path
       inkscape:connector-curvature="0"
       id="path4521"
       style="fill:none;stroke:#0000ff;stroke-width:0.08105866;stroke-linecap:butt;stroke-linejoin:miter;stroke-miterlimit:4;stroke-dasharray:none;stroke-opacity:1"
       d="m 291.26081,277.3929 -0.0769,-43.00039" />
    <path
       inkscape:connector-curvature="0"
       id="path4525"
       style="fill:none;stroke:#fc0000;stroke-width:0.07609477;stroke-linecap:square;stroke-linejoin:miter;stroke-miterlimit:4;stroke-dasharray:none;stroke-opacity:1"
       d="M 540.45098,234.39251 H 291.18504" />
    <path
       inkscape:connector-curvature="0"
       id="path4529"
       style="fill:none;stroke:#fc0000;stroke-width:0.07607111;stroke-linecap:square;stroke-linejoin:miter;stroke-miterlimit:4;stroke-dasharray:none;stroke-opacity:1"
       d="M 540.45143,196.39252 H 319.61053" />
    <path
       inkscape:connector-curvature="0"
       id="path4533"
       style="fill:none;stroke:#fc0000;stroke-width:0.07606997;stroke-linecap:square;stroke-linejoin:miter;stroke-miterlimit:4;stroke-dasharray:none;stroke-opacity:1"
       d="M 540.32135,158.3925 H 319.53199" />
    <path
       inkscape:connector-curvature="0"
       id="path4537"
       style="fill:none;stroke:#0000ff;stroke-width:0.07778598;stroke-linecap:square;stroke-linejoin:miter;stroke-miterlimit:4;stroke-dasharray:none;stroke-opacity:1"
       d="m 540.44881,196.39328 c 4.5212,-0.01 8.70638,3.60179 10.97869,9.47647 2.27242,5.87295 2.28759,13.11641 0.0388,18.99958 -2.24889,5.88347 -6.42031,9.51349 -10.94179,9.52371" />
    <path
       inkscape:connector-curvature="0"
       id="path4541"
       style="fill:none;stroke:#ff0000;stroke-width:0.0730388;stroke-linecap:square;stroke-linejoin:miter;stroke-miterlimit:4;stroke-dasharray:none;stroke-opacity:1"
       d="M 540.44881,196.39163 V 158.3914" />
    <path
       inkscape:connector-curvature="0"
       id="path4545"
       style="fill:none;stroke:#0000ff;stroke-width:0.08105866;stroke-linecap:square;stroke-linejoin:miter;stroke-miterlimit:4;stroke-dasharray:none;stroke-opacity:1"
       d="M 540.44881,277.3929 V 234.39251" />
    <path
       inkscape:connector-curvature="0"
       id="path4549"
       style="fill:none;stroke:#0000ff;stroke-width:0.07849303;stroke-linecap:square;stroke-linejoin:miter;stroke-miterlimit:4;stroke-dasharray:none;stroke-opacity:1"
       d="m 540.2466,120.39144 c 4.52261,-0.0104 8.70909,3.60116 10.98162,9.47513 2.2739,5.87367 2.28748,13.11731 0.0374,19.00019 -2.2491,5.88374 -6.42172,9.51458 -10.94461,9.52465" />
    <path
       d="m 583.44869,193.3925 -42.99988,1.1e-4 v 2.99991"
       style="fill:none;stroke:#0000ff;stroke-width:0.0810583;stroke-linecap:square;stroke-linejoin:miter;stroke-miterlimit:4;stroke-dasharray:none;stroke-opacity:1"
       id="path4551"
       inkscape:connector-curvature="0" />
    <path
       inkscape:connector-curvature="0"
       id="path4555"
       style="fill:none;stroke:#0000ff;stroke-width:0.07610124;stroke-linecap:butt;stroke-linejoin:miter;stroke-miterlimit:4;stroke-dasharray:none;stroke-opacity:1"
       d="m 543.23275,211.36824 c 2.21357,0 4.00242,1.78838 4.00242,3.99611 0,2.21499 -1.78885,4.00384 -4.00242,4.00384 -2.20867,0 -3.99752,-1.78885 -3.99752,-4.00384 0,-2.20773 1.78885,-3.99611 3.99752,-3.99611 z" />
    <path
       inkscape:connector-curvature="0"
       id="path4559"
       style="fill:none;stroke:#0000ff;stroke-width:0.07610124;stroke-linecap:butt;stroke-linejoin:miter;stroke-miterlimit:4;stroke-dasharray:none;stroke-opacity:1"
       d="m 543.23275,135.36441 c 2.21357,0 4.00242,1.79517 4.00242,4.00385 0,2.20725 -1.78885,3.9961 -4.00242,3.9961 -2.20867,0 -3.99752,-1.78885 -3.99752,-3.9961 0,-2.20868 1.78885,-4.00385 3.99752,-4.00385 z" />
    <path
       d="m 583.37419,161.39252 -42.92538,1.1e-4 v -3.00013"
       style="fill:none;stroke:#0000ff;stroke-width:0.08106752;stroke-linecap:square;stroke-linejoin:miter;stroke-miterlimit:4;stroke-dasharray:none;stroke-opacity:1"
       id="path4561"
       inkscape:connector-curvature="0" />
    <path
       inkscape:connector-curvature="0"
       id="path4565"
       style="fill:none;stroke:#0000ff;stroke-width:0.0762;stroke-linecap:square;stroke-linejoin:miter;stroke-miterlimit:4;stroke-dasharray:none;stroke-opacity:1"
       d="m 583.44869,193.3925 -0.0745,-31.99998" />
    <path
       d="m 319.60423,196.39126 h -51.9847 v -37.9975 h 51.9847"
       style="fill:none;stroke:#0000ff;stroke-width:0.07975544;stroke-linecap:butt;stroke-linejoin:miter;stroke-miterlimit:22.92558479;stroke-dasharray:none;stroke-opacity:1"
       id="path4567"
       inkscape:connector-curvature="0" />
    <path
       inkscape:connector-curvature="0"
       id="path4571"
       style="fill:none;stroke:#fc0000;stroke-width:0.0762;stroke-linecap:butt;stroke-linejoin:miter;stroke-miterlimit:4;stroke-dasharray:none;stroke-opacity:1"
       d="m 129.29918,226.61928 h 63.044" />
    <path
       inkscape:connector-curvature="0"
       id="path4575"
       style="fill:none;stroke:#fc0000;stroke-width:0.0762;stroke-linecap:butt;stroke-linejoin:miter;stroke-miterlimit:4;stroke-dasharray:none;stroke-opacity:1"
       d="m 129.29918,181.34907 h 63.04389" />
    <path
       inkscape:connector-curvature="0"
       id="path4579"
       style="fill:none;stroke:#000000;stroke-width:0.0762;stroke-linecap:square;stroke-linejoin:miter;stroke-miterlimit:4;stroke-dasharray:none;stroke-opacity:1"
       d="m 160.82827,277.58445 -0.008,-49.9128" />
    <path
       inkscape:connector-curvature="0"
       id="path4583"
       style="fill:none;stroke:#000000;stroke-width:0.0762;stroke-linecap:square;stroke-linejoin:miter;stroke-miterlimit:4;stroke-dasharray:none;stroke-opacity:1"
       d="m 160.82227,179.99868 -0.008,-49.91132" />
    <path
       inkscape:connector-curvature="0"
       id="path4587"
       style="fill:none;stroke:#fc0000;stroke-width:0.07479332;stroke-linecap:butt;stroke-linejoin:miter;stroke-miterlimit:4;stroke-dasharray:none;stroke-opacity:1"
       d="M 129.29918,226.61844 V 181.34802" />
    <path
       inkscape:connector-curvature="0"
       id="path4591"
       style="fill:none;stroke:#0000ff;stroke-width:0.07673911;stroke-linecap:butt;stroke-linejoin:miter;stroke-miterlimit:4;stroke-dasharray:none;stroke-opacity:1"
       d="M 129.29918,181.3488 V 114.52775" />
    <path
       inkscape:connector-curvature="0"
       id="path4595"
       style="fill:none;stroke:#0000ff;stroke-width:0.0762;stroke-linecap:butt;stroke-linejoin:miter;stroke-miterlimit:4;stroke-dasharray:none;stroke-opacity:1"
       d="M 129.29918,293.73917 V 226.61928" />
    <path
       inkscape:connector-curvature="0"
       id="path4599"
       style="fill:none;stroke:#fc0000;stroke-width:0.0762;stroke-linecap:butt;stroke-linejoin:miter;stroke-miterlimit:4;stroke-dasharray:none;stroke-opacity:1"
       d="m 192.34307,181.34907 v 46.70849" />
    <path
       inkscape:connector-curvature="0"
       id="path4603"
       style="fill:none;stroke:#0000ff;stroke-width:0.07673911;stroke-linecap:butt;stroke-linejoin:miter;stroke-miterlimit:4;stroke-dasharray:none;stroke-opacity:1"
       d="M 192.34307,114.52775 V 181.3488" />
    <path
       inkscape:connector-curvature="0"
       id="path4607"
       style="fill:none;stroke:#0000ff;stroke-width:0.0762;stroke-linecap:butt;stroke-linejoin:miter;stroke-miterlimit:4;stroke-dasharray:none;stroke-opacity:1"
       d="m 192.34307,226.11167 v 67.757" />
    <path
       inkscape:connector-curvature="0"
       id="path4611"
       style="fill:none;stroke:#0000ff;stroke-width:0.0760779;stroke-linecap:butt;stroke-linejoin:miter;stroke-miterlimit:4;stroke-dasharray:none;stroke-opacity:1"
       d="m 160.82089,167.44244 c 2.21176,0 4.00305,1.78522 4.00305,3.99699 0,2.21063 -1.79129,4.00305 -4.00305,4.00305 -2.20457,0 -3.99699,-1.79242 -3.99699,-4.00305 0,-2.21177 1.79242,-3.99699 3.99699,-3.99699 z" />
    <path
       d="m 100.55206,114.52806 h 121.36222 v 61.22102 h -16.3558 v 2.8 h 16.3558 v 2.56688 h 29.58257 v 45.2702 h -29.58257 v 2.9996 h -16.3558 v 2.8 h 16.3558 v 61.55341 H 100.55206 v -61.55341 h 15.53171 v -2.8 h -15.53171 v -2.76648 H 70.969455 v -45.27021 h 29.582605 v -2.79999 h 15.53171 v -2.8 h -15.53171 z"
       style="fill:none;stroke:#0000ff;stroke-width:0.0762;stroke-linecap:butt;stroke-linejoin:miter;stroke-miterlimit:22.92558479;stroke-dasharray:none;stroke-opacity:1"
       id="path4613"
       inkscape:connector-curvature="0" />
    <path
       inkscape:connector-curvature="0"
       id="path4617"
       style="fill:none;stroke:#0000ff;stroke-width:0.0760779;stroke-linecap:butt;stroke-linejoin:miter;stroke-miterlimit:4;stroke-dasharray:none;stroke-opacity:1"
       d="m 160.81806,232.52589 c 2.21177,0 4.00306,1.78522 4.00306,3.99698 0,2.21064 -1.79129,4.00306 -4.00306,4.00306 -2.20442,0 -3.99698,-1.79242 -3.99698,-4.00306 0,-2.21176 1.79256,-3.99698 3.99698,-3.99698 z" />
    <path
       inkscape:connector-curvature="0"
       id="path4611-6"
       style="fill:none;stroke:#0000ff;stroke-width:0.0760779;stroke-linecap:butt;stroke-linejoin:miter;stroke-miterlimit:4;stroke-dasharray:none;stroke-opacity:1"
       d="m 22.349612,200.6339 c 2.21176,0 4.00305,1.78522 4.00305,3.99699 0,2.21063 -1.79129,4.00305 -4.00305,4.00305 -2.20457,0 -3.99699,-1.79242 -3.99699,-4.00305 0,-2.21177 1.79242,-3.99699 3.99699,-3.99699 z" />
    <path
       inkscape:connector-curvature="0"
       id="path4611-6-3"
       style="fill:none;stroke:#0000ff;stroke-width:0.0760779;stroke-linecap:butt;stroke-linejoin:miter;stroke-miterlimit:4;stroke-dasharray:none;stroke-opacity:1"
       d="m 58.535029,200.58692 c 2.21176,0 4.00305,1.78522 4.00305,3.99699 0,2.21063 -1.79129,4.00305 -4.00305,4.00305 -2.20457,0 -3.99699,-1.79242 -3.99699,-4.00305 0,-2.21177 1.79242,-3.99699 3.99699,-3.99699 z" />
    <path
       inkscape:connector-curvature="0"
       id="path4611-4"
       style="fill:none;stroke:#0000ff;stroke-width:0.0188402;stroke-linecap:butt;stroke-linejoin:miter;stroke-miterlimit:4;stroke-dasharray:none;stroke-opacity:1"
       d="m 293.29722,177.36629 c 0.54773,0 0.99134,0.4421 0.99134,0.98983 0,0.54745 -0.44361,0.99133 -0.99134,0.99133 -0.54595,0 -0.98983,-0.44388 -0.98983,-0.99133 0,-0.54773 0.44388,-0.98983 0.98983,-0.98983 z" />
    <path
       inkscape:connector-curvature="0"
       id="path4509-3"
       style="fill:none;stroke:#ff0000;stroke-width:0.08061661;stroke-linecap:square;stroke-linejoin:miter;stroke-miterlimit:4;stroke-dasharray:none;stroke-opacity:1"
       d="m 310.98007,205.56062 -43.08621,-0.3414" />
    <path
       inkscape:connector-curvature="0"
       id="path4509-3-0"
       style="fill:none;stroke:#ff0000;stroke-width:0.0762;stroke-linecap:square;stroke-linejoin:miter;stroke-miterlimit:4;stroke-dasharray:none;stroke-opacity:1"
       d="m 305.6142,151.68312 -37.99852,-0.34586" />
    <path
       inkscape:connector-curvature="0"
       id="path4509-3-7"
       style="fill:none;stroke:#ff0000;stroke-width:0.03496216;stroke-linecap:square;stroke-linejoin:miter;stroke-miterlimit:4;stroke-dasharray:none;stroke-opacity:1"
       d="m 267.61953,196.39126 0.2721,8.82573" />
    <path
       inkscape:connector-curvature="0"
       id="path4509-3-7-4"
       style="fill:none;stroke:#ff0000;stroke-width:0.03628097;stroke-linecap:square;stroke-linejoin:miter;stroke-miterlimit:4;stroke-dasharray:none;stroke-opacity:1"
       d="m 310.70933,196.0088 0.27074,9.55182" />
  </g>
</svg>
